HIERARCHY
ROOT Hips
{
  OFFSET -590.375 93.0139 1180.6
  CHANNELS 6 Xposition Yposition Zposition Zrotation Xrotation Yrotation
  JOINT Spine
  {
    OFFSET 1.11412e-05 8 -1.73661e-05
    CHANNELS 6 Xposition Yposition Zposition Zrotation Xrotation Yrotation
    JOINT Spine1
    {
      OFFSET -0.000266898 8.00001 0.00018545
      CHANNELS 6 Xposition Yposition Zposition Zrotation Xrotation Yrotation
      JOINT Spine2
      {
        OFFSET -3.28533e-05 8 3.82167e-05
        CHANNELS 6 Xposition Yposition Zposition Zrotation Xrotation Yrotation
        JOINT Spine3
        {
          OFFSET 0 8 0
          CHANNELS 6 Xposition Yposition Zposition Zrotation Xrotation Yrotation
          JOINT Neck
          {
            OFFSET 0.000121366 17.0003 -2.50741e-05
            CHANNELS 6 Xposition Yposition Zposition Zrotation Xrotation Yrotation
            JOINT Head
            {
              OFFSET -1.76495e-05 10.7998 2.45072e-05
              CHANNELS 6 Xposition Yposition Zposition Zrotation Xrotation Yrotation
              End Site
              {
                OFFSET 0 20.25 0
              }
            }
          }
          JOINT LeftShoulder
          {
            OFFSET 5.00008 17 0
            CHANNELS 6 Xposition Yposition Zposition Zrotation Xrotation Yrotation
            JOINT LeftShoulder2
            {
              OFFSET 6.45 0 0
              CHANNELS 6 Xposition Yposition Zposition Zrotation Xrotation Yrotation
              JOINT LeftArm
              {
                OFFSET 6.45002 2.75874e-05 -0.00020797
                CHANNELS 6 Xposition Yposition Zposition Zrotation Xrotation Yrotation
                JOINT LeftForeArm
                {
                  OFFSET 5.84248e-05 -32.4 -2.00004
                  CHANNELS 6 Xposition Yposition Zposition Zrotation Xrotation Yrotation
                  JOINT LeftHand
                  {
                    OFFSET -6.31095e-05 -25.65 1.99995
                    CHANNELS 6 Xposition Yposition Zposition Zrotation Xrotation Yrotation
                    JOINT LeftHandThumb1
                    {
                      OFFSET -0.499994 -1.50004 2.64999
                      CHANNELS 6 Xposition Yposition Zposition Zrotation Xrotation Yrotation
                      JOINT LeftHandThumb2
                      {
                        OFFSET 5.93171e-05 -3.80001 3.70006
                        CHANNELS 6 Xposition Yposition Zposition Zrotation Xrotation Yrotation
                        JOINT LeftHandThumb3
                        {
                          OFFSET -0.00355914 -3.00206 2.70001
                          CHANNELS 6 Xposition Yposition Zposition Zrotation Xrotation Yrotation
                          End Site
                          {
                            OFFSET -0.00120269 -2.29949 1.79949
                          }
                        }
                      }
                    }
                    JOINT LeftHandIndex
                    {
                      OFFSET 0.000157375 -1.90004 1.60006
                      CHANNELS 6 Xposition Yposition Zposition Zrotation Xrotation Yrotation
                      JOINT LeftHandIndex1
                      {
                        OFFSET 0.000426433 -8.29993 1.89996
                        CHANNELS 6 Xposition Yposition Zposition Zrotation Xrotation Yrotation
                        JOINT LeftHandIndex2
                        {
                          OFFSET 0.00140324 -4.50236 -0.00141626
                          CHANNELS 6 Xposition Yposition Zposition Zrotation Xrotation Yrotation
                          JOINT LeftHandIndex3
                          {
                            OFFSET -1.54957e-05 -3.3999 0.000507497
                            CHANNELS 6 Xposition Yposition Zposition Zrotation Xrotation Yrotation
                            End Site
                            {
                              OFFSET 0.000302126 -2.60043 -0.000505661
                            }
                          }
                        }
                      }
                    }
                    JOINT LeftHandMiddle
                    {
                      OFFSET -0.250571 -2.20006 0.4002
                      CHANNELS 6 Xposition Yposition Zposition Zrotation Xrotation Yrotation
                      JOINT LeftHandMiddle1
                      {
                        OFFSET 0.00034085 -8.3006 0.999003
                        CHANNELS 6 Xposition Yposition Zposition Zrotation Xrotation Yrotation
                        JOINT LeftHandMiddle2
                        {
                          OFFSET 0.000195878 -4.64982 0
                          CHANNELS 6 Xposition Yposition Zposition Zrotation Xrotation Yrotation
                          JOINT LeftHandMiddle3
                          {
                            OFFSET -1.99183e-05 -3.30016 0.000122645
                            CHANNELS 6 Xposition Yposition Zposition Zrotation Xrotation Yrotation
                            End Site
                            {
                              OFFSET -0.00126988 -2.69967 -0.000872085
                            }
                          }
                        }
                      }
                    }
                    JOINT LeftHandRing
                    {
                      OFFSET -0.500733 -2.15017 -0.799934
                      CHANNELS 6 Xposition Yposition Zposition Zrotation Xrotation Yrotation
                      JOINT LeftHandRing1
                      {
                        OFFSET -0.000202282 -7.74866 -0.197439
                        CHANNELS 6 Xposition Yposition Zposition Zrotation Xrotation Yrotation
                        JOINT LeftHandRing2
                        {
                          OFFSET -4.51133e-05 -3.80009 -0.00013026
                          CHANNELS 6 Xposition Yposition Zposition Zrotation Xrotation Yrotation
                          JOINT LeftHandRing3
                          {
                            OFFSET 0.000634945 -3.39992 -0.000449448
                            CHANNELS 6 Xposition Yposition Zposition Zrotation Xrotation Yrotation
                            End Site
                            {
                              OFFSET -0.000378489 -2.59986 -0.00022173
                            }
                          }
                        }
                      }
                    }
                    JOINT LeftHandPinky
                    {
                      OFFSET -0.749972 -1.75011 -1.84992
                      CHANNELS 6 Xposition Yposition Zposition Zrotation Xrotation Yrotation
                      JOINT LeftHandPinky1
                      {
                        OFFSET 0.000796538 -7.14975 -1.00007
                        CHANNELS 6 Xposition Yposition Zposition Zrotation Xrotation Yrotation
                        JOINT LeftHandPinky2
                        {
                          OFFSET 9.76363e-05 -3.00029 4.70854e-05
                          CHANNELS 6 Xposition Yposition Zposition Zrotation Xrotation Yrotation
                          JOINT LeftHandPinky3
                          {
                            OFFSET 0.000413418 -2.34971 -0.000309185
                            CHANNELS 6 Xposition Yposition Zposition Zrotation Xrotation Yrotation
                            End Site
                            {
                              OFFSET -0.000286055 -2.1003 -0.00042323
                            }
                          }
                        }
                      }
                    }
                  }
                }
              }
            }
          }
          JOINT RightShoulder
          {
            OFFSET -4.99986 17 0.000194426
            CHANNELS 6 Xposition Yposition Zposition Zrotation Xrotation Yrotation
            JOINT RightShoulder2
            {
              OFFSET -6.45 0 0
              CHANNELS 6 Xposition Yposition Zposition Zrotation Xrotation Yrotation
              JOINT RightArm
              {
                OFFSET -6.45009 -0.000160971 0.000141526
                CHANNELS 6 Xposition Yposition Zposition Zrotation Xrotation Yrotation
                JOINT RightForeArm
                {
                  OFFSET -0.000359085 -32.4005 -1.99991
                  CHANNELS 6 Xposition Yposition Zposition Zrotation Xrotation Yrotation
                  JOINT RightHand
                  {
                    OFFSET 8.20027e-05 -25.65 1.99987
                    CHANNELS 6 Xposition Yposition Zposition Zrotation Xrotation Yrotation
                    JOINT RightHandThumb1
                    {
                      OFFSET 0.498953 -1.49993 2.64992
                      CHANNELS 6 Xposition Yposition Zposition Zrotation Xrotation Yrotation
                      JOINT RightHandThumb2
                      {
                        OFFSET 0.000651995 -3.79962 3.69907
                        CHANNELS 6 Xposition Yposition Zposition Zrotation Xrotation Yrotation
                        JOINT RightHandThumb3
                        {
                          OFFSET 0.000141163 -3 2.70004
                          CHANNELS 6 Xposition Yposition Zposition Zrotation Xrotation Yrotation
                          End Site
                          {
                            OFFSET 8.70316e-05 -2.29989 1.80001
                          }
                        }
                      }
                    }
                    JOINT RightHandIndex
                    {
                      OFFSET -0.00080358 -1.89956 1.60034
                      CHANNELS 6 Xposition Yposition Zposition Zrotation Xrotation Yrotation
                      JOINT RightHandIndex1
                      {
                        OFFSET 0.00100652 -8.30052 1.8995
                        CHANNELS 6 Xposition Yposition Zposition Zrotation Xrotation Yrotation
                        JOINT RightHandIndex2
                        {
                          OFFSET -0.000106816 -4.49979 0.000107487
                          CHANNELS 6 Xposition Yposition Zposition Zrotation Xrotation Yrotation
                          JOINT RightHandIndex3
                          {
                            OFFSET 2.51101e-05 -3.39955 -0.00106309
                            CHANNELS 6 Xposition Yposition Zposition Zrotation Xrotation Yrotation
                            End Site
                            {
                              OFFSET -6.20588e-05 -2.60007 -6.76711e-05
                            }
                          }
                        }
                      }
                    }
                    JOINT RightHandMiddle
                    {
                      OFFSET 0.250097 -2.20012 0.400174
                      CHANNELS 6 Xposition Yposition Zposition Zrotation Xrotation Yrotation
                      JOINT RightHandMiddle1
                      {
                        OFFSET 0.00152996 -8.29915 1.00055
                        CHANNELS 6 Xposition Yposition Zposition Zrotation Xrotation Yrotation
                        JOINT RightHandMiddle2
                        {
                          OFFSET -0.00338356 -4.64657 0.00186367
                          CHANNELS 6 Xposition Yposition Zposition Zrotation Xrotation Yrotation
                          JOINT RightHandMiddle3
                          {
                            OFFSET 0.000513063 -3.30012 0.000198028
                            CHANNELS 6 Xposition Yposition Zposition Zrotation Xrotation Yrotation
                            End Site
                            {
                              OFFSET -9.88314e-05 -2.70016 4.79444e-05
                            }
                          }
                        }
                      }
                    }
                    JOINT RightHandRing
                    {
                      OFFSET 0.50013 -2.15093 -0.798612
                      CHANNELS 6 Xposition Yposition Zposition Zrotation Xrotation Yrotation
                      JOINT RightHandRing1
                      {
                        OFFSET -0.000804441 -7.74947 -0.199557
                        CHANNELS 6 Xposition Yposition Zposition Zrotation Xrotation Yrotation
                        JOINT RightHandRing2
                        {
                          OFFSET 4.34525e-05 -3.7997 -0.000356058
                          CHANNELS 6 Xposition Yposition Zposition Zrotation Xrotation Yrotation
                          JOINT RightHandRing3
                          {
                            OFFSET -0.000176322 -3.39984 5.34209e-05
                            CHANNELS 6 Xposition Yposition Zposition Zrotation Xrotation Yrotation
                            End Site
                            {
                              OFFSET -0.00146252 -2.59941 -0.000382528
                            }
                          }
                        }
                      }
                    }
                    JOINT RightHandPinky
                    {
                      OFFSET 0.749931 -1.75 -1.85008
                      CHANNELS 6 Xposition Yposition Zposition Zrotation Xrotation Yrotation
                      JOINT RightHandPinky1
                      {
                        OFFSET 0.00150871 -7.15102 -1.00086
                        CHANNELS 6 Xposition Yposition Zposition Zrotation Xrotation Yrotation
                        JOINT RightHandPinky2
                        {
                          OFFSET -0.00292985 -2.99988 -1.30323e-05
                          CHANNELS 6 Xposition Yposition Zposition Zrotation Xrotation Yrotation
                          JOINT RightHandPinky3
                          {
                            OFFSET 0.00177218 -2.35124 1.04943e-05
                            CHANNELS 6 Xposition Yposition Zposition Zrotation Xrotation Yrotation
                            End Site
                            {
                              OFFSET 0.000696192 -2.09972 0.000574512
                            }
                          }
                        }
                      }
                    }
                  }
                }
              }
            }
          }
        }
      }
    }
  }
  JOINT LeftUpLeg
  {
    OFFSET 8.00002 0 2.12352e-05
    CHANNELS 6 Xposition Yposition Zposition Zrotation Xrotation Yrotation
    JOINT LeftLeg
    {
      OFFSET 0.000242279 -45.0001 -0.999829
      CHANNELS 6 Xposition Yposition Zposition Zrotation Xrotation Yrotation
      JOINT LeftFoot
      {
        OFFSET -5.33838e-05 -41 -1.99997
        CHANNELS 6 Xposition Yposition Zposition Zrotation Xrotation Yrotation
        JOINT LeftToeBase
        {
          OFFSET 0.000748079 -7.5 12.4983
          CHANNELS 6 Xposition Yposition Zposition Zrotation Xrotation Yrotation
          JOINT LeftFootToe
          {
            OFFSET 0 0 4
            CHANNELS 6 Xposition Yposition Zposition Zrotation Xrotation Yrotation
            End Site
            {
              OFFSET 0 0 0
            }
          }
        }
      }
    }
  }
  JOINT RightUpLeg
  {
    OFFSET -8.00002 0 -2.12352e-05
    CHANNELS 6 Xposition Yposition Zposition Zrotation Xrotation Yrotation
    JOINT RightLeg
    {
      OFFSET -0.000254447 -45.0001 -0.99994
      CHANNELS 6 Xposition Yposition Zposition Zrotation Xrotation Yrotation
      JOINT RightFoot
      {
        OFFSET -8.05615e-05 -41 -2.00012
        CHANNELS 6 Xposition Yposition Zposition Zrotation Xrotation Yrotation
        JOINT RightToeBase
        {
          OFFSET 0.00022873 -7.50002 12.5
          CHANNELS 6 Xposition Yposition Zposition Zrotation Xrotation Yrotation
          JOINT RightFootToe
          {
            OFFSET 0 0 4
            CHANNELS 6 Xposition Yposition Zposition Zrotation Xrotation Yrotation
            End Site
            {
              OFFSET 0 0 0
            }
          }
        }
      }
    }
  }
}
MOTION
Frames:	3
Frame Time:	0.0111111
-592.298 93.084 1174.33 -1.61605 -1.69295 -138.315 0 8 -1.7053e-13 -5.1522 5.93096 7.86448 0 8 -1.7053e-13 -0.036114 0.871448 2.23641 -2.27374e-13 8 -5.68434e-14 -0.0138291 0.435932 1.11825 -2.27374e-13 8 -5.68434e-14 -0.0138052 0.435851 1.11796 0 17 -5.68434e-14 -1.44745 4.78787 15.5817 2.27374e-13 10.8 -1.7053e-13 -1.20558 -0.904194 36.6814 5 17 1.13687e-13 -6.04525 4.35142 -7.33969 6.45 5.68434e-14 -1.7053e-13 -1.03221 1.71549 -2.58167 6.45 -5.68434e-14 -1.7053e-13 60.2955 -11.0239 83.9051 0 -32.4 -2 -69.6138 -22.9207 -28.4439 2.27374e-13 -25.65 2 12.3943 25.4902 5.73909 -0.5 -1.5 2.65 -21.2523 -46.0289 -12.0908 -2.27374e-13 -3.8 3.7 6.8246 35.2198 0.883236 4.54747e-13 -3 2.7 0.0221323 13.9969 -0.0241242 2.27374e-13 -1.9 1.6 -4.86371e-06 -3.90579e-06 -3.67276e-06 -2.27374e-13 -8.3 1.9 -26.3246 32.0181 8.7981 2.27374e-13 -4.5 5.68434e-14 -0.0342217 -0.042222 -0.0337117 2.27374e-13 -3.4 0 0.00135197 -0.0440877 -0.0470873 -0.25 -2.2 0.4 -4.86371e-06 -3.90579e-06 -3.67276e-06 0 -8.3 1 -31.315 33.2373 11.9248 -2.27374e-13 -4.65 5.68434e-14 0.0105889 68.4186 -68.4112 0 -3.3 -2.27374e-13 -90.0001 -8.37669e-06 3.75551e-05 -0.5 -2.15 -0.8 -4.86371e-06 -3.90579e-06 -3.67276e-06 0 -7.75 -0.2 -18.6859 26.4552 5.79705 0 -3.8 5.68434e-14 -13.6529 71.5934 -57.7836 1.7053e-13 -3.4 2.27374e-13 -85.1306 -0.0184758 -0.00873454 -0.75 -1.75 -1.85 -4.86371e-06 -3.90579e-06 -3.67276e-06 2.27374e-13 -7.15 -1 -62.7219 12.7487 12.9394 0 -3 0 -43.8934 16.0155 -0.631686 5.68434e-14 -2.35 0 -33.3764 -0.0120165 -0.00246468 -5 17 5.68434e-14 6.42418 9.70394 1.98805 -6.45 0 -2.27374e-13 -0.834595 -0.916479 -2.08495 -6.45 2.84217e-14 -5.68434e-14 -41.812 23.9674 -9.32424 -1.13687e-13 -32.4 -2 42.4171 -48.9235 48.1287 0 -25.65 2 -29.9018 -31.1604 2.52491 0.5 -1.5 2.65 41.9545 48.3278 -154.449 1.13687e-13 -3.8 3.7 -3.48058 26.6754 -1.27982 0 -3 2.7 0.0761525 35.8672 -0.0782052 1.13687e-13 -1.9 1.6 2.64546e-07 3.97717e-06 -3.95282e-06 0 -8.3 1.9 10.939 5.97918 -0.642437 0 -4.5 0 5.95448 0.00188073 -0.00366324 0 -3.4 -1.13687e-13 5.50123 0.0022913 -0.0100998 0.25 -2.2 0.4 2.64546e-07 3.97717e-06 -3.95282e-06 1.13687e-13 -8.3 1 10.2577 11.5362 -1.42569 0 -4.65 1.13687e-13 83.3654 -0.00451682 0.00741303 0 -3.3 0 72.2199 0.00588999 -0.0213695 0.5 -2.15 -0.8 2.64546e-07 3.97717e-06 -3.95282e-06 1.13687e-13 -7.75 -0.2 9.91106 18.3821 -2.51847 0 -3.8 -1.13687e-13 80.9703 0.0103615 -0.0150015 -1.13687e-13 -3.4 0 67.6717 0.00325089 0.00656666 0.75 -1.75 -1.85 2.64546e-07 3.97717e-06 -3.95282e-06 0 -7.15 -1 11.1844 24.61 -3.78263 0 -3 3.41061e-13 66.5966 -0.00284273 -0.00355357 -1.13687e-13 -2.35 1.13687e-13 48.2522 0.00933659 0.00394653 8 -3.55271e-14 -1.13687e-13 14.3613 -11.5811 14.5203 2.27374e-13 -45 -1 -19.4042 10.2482 -3.95417 4.54747e-13 -41 -2 5.11071 4.93804 -28.0985 1.13687e-13 -7.5 12.5 1.03363e-06 3.215e-06 -5.04759e-06 0 4.44089e-16 4 0.272923 -2.40462 34.6839 -8 -7.10543e-15 0 -8.35556 5.61831 -30.5178 0 -45 -1 -2.59252 -5.75551 -1.81616 1.13687e-13 -41 -2 10.2949 3.95132 -13.756 2.84217e-13 -7.5 12.5 -0.00175651 0.000178413 0.00400495 -1.13687e-13 0 4 -6.00775 -0.540922 53.5695 
-592.401 93.0647 1174.42 -1.70222 -1.76019 -138.514 0 8 -1.13687e-13 -5.27539 5.88785 7.95687 0 8 -5.68434e-14 -0.0179478 0.850537 2.26791 0 8 -1.7053e-13 -0.00478766 0.425387 1.13413 0 8 1.7053e-13 -0.00504273 0.424909 1.13441 2.27374e-13 17 1.7053e-13 -1.46476 4.86751 15.5849 -2.27374e-13 10.8 0 -1.27322 -0.818297 36.6742 5 17 1.13687e-13 -6.02193 4.42052 -7.23633 6.45 0 -5.68434e-14 -1.02729 1.71547 -2.59159 6.45 -5.68434e-14 -5.68434e-14 60.2694 -10.9497 83.9744 1.13687e-13 -32.4 -2 -69.5918 -22.8564 -28.3803 2.27374e-13 -25.65 2 12.4989 25.405 5.65575 -0.5 -1.5 2.65 -21.5385 -45.8275 -12.0521 0 -3.8 3.7 6.65163 34.694 0.939059 2.27374e-13 -3 2.7 0.0226206 15.1165 -0.0242469 -2.27374e-13 -1.9 1.6 -4.86371e-06 -3.90579e-06 -3.67276e-06 -2.27374e-13 -8.3 1.9 -25.461 31.786 8.45086 0 -4.5 1.13687e-13 -0.034222 -0.0428036 -0.0337117 0 -3.4 5.68434e-14 0.00135197 -0.0440877 -0.0470873 -0.25 -2.2 0.4 -4.86371e-06 -3.90579e-06 -3.67276e-06 0 -8.3 1 -30.2476 33.0511 11.4528 0 -4.65 -5.68434e-14 -0.423993 68.4178 -67.9442 5.68434e-14 -3.3 -2.27374e-13 -90.0001 -8.37669e-06 3.75551e-05 -0.5 -2.15 -0.8 -4.86371e-06 -3.90579e-06 -3.67276e-06 0 -7.75 -0.2 -17.4156 26.2799 5.42591 0 -3.8 1.13687e-13 -14.1224 71.5503 -57.2875 5.68434e-14 -3.4 0 -84.9603 -0.00707805 0.000813551 -0.75 -1.75 -1.85 -4.86371e-06 -3.90579e-06 -3.67276e-06 -2.27374e-13 -7.15 -1 -61.6187 13.1814 12.8641 0 -3 -5.68434e-14 -44.8988 16.6441 -0.685486 1.7053e-13 -2.35 0 -34.255 -0.012579 -0.0067318 -5 17 1.13687e-13 6.39838 9.81246 2.05248 -6.45 8.52651e-14 5.68434e-14 -0.834931 -0.921101 -2.09537 -6.45 5.68434e-14 -5.68434e-14 -42.188 23.9082 -9.04284 -1.13687e-13 -32.4 -2 43.1167 -49.0092 48.8339 0 -25.65 2 -29.9297 -31.233 2.57036 0.5 -1.5 2.65 42.6121 48.4207 -155.375 2.27374e-13 -3.8 3.7 -3.39986 26.2446 -1.29092 1.13687e-13 -3 2.7 0.0761525 35.8672 -0.0782052 1.13687e-13 -1.9 1.6 2.64546e-07 3.97717e-06 -3.95282e-06 1.13687e-13 -8.3 1.9 10.7496 5.80313 -0.615253 1.13687e-13 -4.5 0 6.34547 0.00188073 -0.00366324 0 -3.4 0 5.82593 0.0022913 -0.0100998 0.25 -2.2 0.4 2.64546e-07 3.97717e-06 -3.95282e-06 -1.13687e-13 -8.3 1 10.3666 11.5697 -1.45541 1.13687e-13 -4.65 0 83.8245 -0.00451682 0.00741303 0 -3.3 0 73.1771 0.00588999 -0.0203414 0.5 -2.15 -0.8 2.64546e-07 3.97717e-06 -3.95282e-06 2.27374e-13 -7.75 -0.2 10.5977 18.697 -2.70784 1.13687e-13 -3.8 -1.13687e-13 80.9622 0.0103615 -0.0153948 -1.13687e-13 -3.4 -1.13687e-13 67.6522 -0.00155063 -0.000336164 0.75 -1.75 -1.85 2.64546e-07 3.97717e-06 -3.95282e-06 0 -7.15 -1 12.3451 25.0622 -4.16278 -2.27374e-13 -3 2.27374e-13 66.7683 -0.00284273 0.00327313 -2.27374e-13 -2.35 0 48.4218 0.00933659 0.00394653 8 0 -1.13687e-13 14.2743 -11.6494 14.5224 0 -45 -1 -19.5462 10.504 -3.8895 0 -41 -2 5.25487 4.75535 -28.2593 -1.13687e-13 -7.5 12.5 1.03363e-06 3.215e-06 -5.04759e-06 1.13687e-13 -4.44089e-16 4 0.189778 -2.45559 34.7334 -8 2.13163e-14 0 -8.73588 5.45977 -30.6721 2.27374e-13 -45 -1 -2.40512 -5.30258 -1.81477 0 -41 -2 10.2682 3.75393 -13.4412 2.27374e-13 -7.5 12.5 -0.00175651 0.000178413 0.00400495 -1.7053e-13 0 4 -5.91169 -0.654478 53.5804 
-592.504 93.0454 1174.5 -1.78883 -1.8278 -138.713 0 8 -5.68434e-14 -5.39843 5.84475 8.04925 -2.27374e-13 8 -1.13687e-13 0.000241282 0.829628 2.29942 -2.27374e-13 8 -1.7053e-13 0.00425964 0.414841 1.15001 0 8 -5.68434e-14 0.00387682 0.414516 1.15172 0 17 1.13687e-13 -1.48207 4.94715 15.588 2.27374e-13 10.8 -1.7053e-13 -1.34085 -0.732385 36.6671 5 17 5.68434e-14 -5.99887 4.48963 -7.13296 6.45 0 -5.68434e-14 -1.01913 1.71546 -2.60366 6.45 -5.68434e-14 0 60.2432 -10.8752 84.0434 0 -32.4 -2 -69.5699 -22.792 -28.3169 0 -25.65 2 12.6033 25.3197 5.57255 -0.5 -1.5 2.65 -21.825 -45.6262 -12.0138 0 -3.8 3.7 6.47989 34.1682 0.994255 4.54747e-13 -3 2.7 0.0231141 16.2361 -0.0243803 0 -1.9 1.6 -4.86371e-06 -3.90579e-06 -3.67276e-06 0 -8.3 1.9 -24.6008 31.5527 8.1055 0 -4.5 1.13687e-13 -0.0342224 -0.0433853 -0.0337117 -2.27374e-13 -3.4 -5.68434e-14 0.00135197 -0.0440877 -0.0470873 -0.25 -2.2 0.4 -4.86371e-06 -3.90579e-06 -3.67276e-06 0 -8.3 1 -29.1842 32.8626 10.9829 0 -4.65 -5.68434e-14 -0.858465 68.4155 -67.4771 5.68434e-14 -3.3 0 -90.0001 -8.37669e-06 3.75551e-05 -0.5 -2.15 -0.8 -4.86371e-06 -3.90579e-06 -3.67276e-06 2.27374e-13 -7.75 -0.2 -16.1479 26.1035 5.05594 0 -3.8 0 -14.5894 71.5059 -56.7936 1.13687e-13 -3.4 2.27374e-13 -84.79 0.00431972 0.0103616 -0.75 -1.75 -1.85 -4.86371e-06 -3.90579e-06 -3.67276e-06 2.27374e-13 -7.15 -1 -60.5143 13.6144 12.7893 0 -3 0 -45.9029 17.2726 -0.739723 1.13687e-13 -2.35 5.68434e-14 -35.1337 -0.0131415 -0.0109989 -5 17 0 6.37234 9.92095 2.11696 -6.45 0 5.68434e-14 -0.835327 -0.926379 -2.1079 -6.45 2.84217e-14 0 -42.5633 23.8484 -8.76171 -1.13687e-13 -32.4 -2 43.8201 -49.0882 49.5409 -2.27374e-13 -25.65 2 -29.9575 -31.3055 2.61589 0.5 -1.5 2.65 43.272 48.5054 -156.305 0 -3.8 3.7 -3.31933 25.8138 -1.302 1.13687e-13 -3 2.7 0.0761525 35.8672 -0.0782052 0 -1.9 1.6 2.64546e-07 3.97717e-06 -3.95282e-06 0 -8.3 1.9 10.5603 5.62708 -0.588091 1.13687e-13 -4.5 1.13687e-13 6.73646 0.00188073 -0.00366324 -1.13687e-13 -3.4 0 6.15063 0.0022913 -0.0100998 0.25 -2.2 0.4 2.64546e-07 3.97717e-06 -3.95282e-06 0 -8.3 1 10.4756 11.6032 -1.48514 0 -4.65 0 84.2835 -0.00451682 0.00741303 -1.13687e-13 -3.3 -2.27374e-13 74.1343 0.00588999 -0.0193134 0.5 -2.15 -0.8 2.64546e-07 3.97717e-06 -3.95282e-06 0 -7.75 -0.2 11.2866 19.0115 -2.89801 1.13687e-13 -3.8 -1.13687e-13 80.9542 0.0103615 -0.0157881 0 -3.4 1.13687e-13 67.6327 -0.00635215 -0.00723898 0.75 -1.75 -1.85 2.64546e-07 3.97717e-06 -3.95282e-06 0 -7.15 -1 13.5126 25.513 -4.546 -2.27374e-13 -3 1.13687e-13 66.9399 -0.00284273 0.0100998 -1.13687e-13 -2.35 0 48.5914 0.00933659 0.00394653 8 -1.42109e-14 0 14.1872 -11.7178 14.5246 0 -45 -1 -19.6887 10.7599 -3.8248 2.27374e-13 -41 -2 5.39803 4.57316 -28.4204 0 -7.5 12.5 1.03363e-06 3.215e-06 -5.04759e-06 2.27374e-13 0 4 0.10239 -2.5053 34.5917 -8 -3.55271e-14 -5.68434e-14 -9.11704 5.30167 -30.8266 0 -45 -1 -2.21774 -4.84966 -1.8135 0 -41 -2 10.2437 3.5559 -13.1268 1.13687e-13 -7.5 12.5 -0.00175651 0.000178413 0.00400495 -5.68434e-14 0 4 -5.82413 -0.770363 53.5782 
